<svg width="19" height="19" viewBox="0 0 19 19" fill="none" xmlns="http://www.w3.org/2000/svg">
<path d="M14.7778 15.8334H3.16664V4.22226H10.1439L11.1994 3.1667H3.16664C2.88669 3.1667 2.6182 3.27791 2.42025 3.47587C2.22229 3.67382 2.11108 3.94231 2.11108 4.22226V15.8334C2.11108 16.1133 2.22229 16.3818 2.42025 16.5798C2.6182 16.7777 2.88669 16.8889 3.16664 16.8889H14.7778C15.0577 16.8889 15.3262 16.7777 15.5241 16.5798C15.7221 16.3818 15.8333 16.1133 15.8333 15.8334V7.9167L14.7778 8.97226V15.8334Z" fill="#94A6C1"/>
<path d="M17.6965 3.0823L15.9179 1.30369C15.839 1.22454 15.7452 1.16174 15.642 1.11889C15.5387 1.07604 15.428 1.05399 15.3163 1.05399C15.2045 1.05399 15.0938 1.07604 14.9906 1.11889C14.8873 1.16174 14.7935 1.22454 14.7146 1.30369L7.47877 8.58174L6.89293 11.1204C6.86797 11.2434 6.8706 11.3705 6.90061 11.4924C6.93063 11.6143 6.9873 11.7281 7.06653 11.8255C7.14577 11.9229 7.2456 12.0015 7.35886 12.0557C7.47212 12.1099 7.59598 12.1383 7.72154 12.139C7.78644 12.1461 7.85192 12.1461 7.91682 12.139L10.4765 11.5742L17.6965 4.28563C17.7757 4.2067 17.8385 4.11292 17.8813 4.00968C17.9242 3.90643 17.9462 3.79575 17.9462 3.68396C17.9462 3.57218 17.9242 3.4615 17.8813 3.35825C17.8385 3.25501 17.7757 3.16123 17.6965 3.0823ZM9.92765 10.5979L7.99599 11.0254L8.4446 9.10952L13.8913 3.62591L15.3796 5.11424L9.92765 10.5979ZM15.976 4.51785L14.4877 3.02952L15.3057 2.19563L16.8046 3.69452L15.976 4.51785Z" fill="#94A6C1"/>
</svg>
