<svg width="10" height="10" viewBox="0 0 20 20" fill="none" xmlns="http://www.w3.org/2000/svg">
<path d="M11.5278 5.55553C12.7551 5.55553 13.75 4.56061 13.75 3.33331C13.75 2.10601 12.7551 1.11108 11.5278 1.11108C10.3005 1.11108 9.30554 2.10601 9.30554 3.33331C9.30554 4.56061 10.3005 5.55553 11.5278 5.55553Z" fill="#FCCABB"/>
<path d="M13.8 14.5722C13.7386 14.5309 13.6696 14.5023 13.597 14.488C13.5244 14.4738 13.4497 14.4742 13.3773 14.4892C13.3048 14.5042 13.2361 14.5335 13.1751 14.5754C13.1142 14.6174 13.0622 14.671 13.0223 14.7333C12.4852 15.5287 11.8273 16.2353 11.0723 16.8278C10.8889 16.9667 10.2056 17.4944 9.9167 17.3833C9.7167 17.3222 9.83337 16.9278 9.87226 16.7611L10.1667 15.8889C10.2889 15.5333 12.4167 9.22221 12.65 8.49999C12.9945 7.44443 12.8445 6.40554 11.2723 6.65554C10.8445 6.69999 6.50559 7.2611 6.42781 7.26665C6.35486 7.27139 6.28355 7.29046 6.21796 7.32276C6.15237 7.35506 6.09379 7.39996 6.04555 7.45491C5.99732 7.50985 5.96038 7.57375 5.93684 7.64297C5.9133 7.71219 5.90363 7.78536 5.90837 7.85832C5.91311 7.93128 5.93218 8.00258 5.96448 8.06817C5.99678 8.13376 6.04168 8.19235 6.09662 8.24058C6.15156 8.28881 6.21547 8.32576 6.28468 8.34929C6.3539 8.37283 6.42708 8.38251 6.50003 8.37776C6.50003 8.37776 8.1667 8.1611 8.35004 8.14443C8.44394 8.13526 8.53849 8.15346 8.62229 8.19684C8.70608 8.24021 8.77553 8.30691 8.82226 8.38888C8.92292 8.70006 8.90913 9.03696 8.78337 9.33888C8.63892 9.89443 6.35559 16.3278 6.28337 16.7C6.20591 17.0115 6.22741 17.3393 6.3449 17.638C6.46239 17.9367 6.67002 18.1914 6.93892 18.3667C7.44365 18.7031 8.04462 18.865 8.65004 18.8278C9.23868 18.8206 9.82084 18.7038 10.3667 18.4833C11.75 17.9278 13.1945 16.45 13.9556 15.2889C14.0211 15.1709 14.0415 15.0331 14.0129 14.9012C13.9842 14.7693 13.9086 14.6524 13.8 14.5722V14.5722Z" fill="#FCCABB"/>
</svg>