<svg width="39" height="39" viewBox="0 0 39 39" xmlns="http://www.w3.org/2000/svg">
<rect width="39" height="39" rx="19.5" fill="#CACBCD"/>
<path d="M20.5278 15.5555C21.7551 15.5555 22.75 14.5606 22.75 13.3333C22.75 12.106 21.7551 11.1111 20.5278 11.1111C19.3005 11.1111 18.3055 12.106 18.3055 13.3333C18.3055 14.5606 19.3005 15.5555 20.5278 15.5555Z" fill="#F1F1F1"/>
<path d="M22.8 24.5722C22.7386 24.5309 22.6696 24.5023 22.597 24.488C22.5244 24.4738 22.4497 24.4742 22.3773 24.4892C22.3048 24.5042 22.2361 24.5335 22.1751 24.5754C22.1142 24.6174 22.0622 24.671 22.0223 24.7333C21.4852 25.5287 20.8273 26.2353 20.0723 26.8278C19.8889 26.9667 19.2056 27.4944 18.9167 27.3833C18.7167 27.3222 18.8334 26.9278 18.8723 26.7611L19.1667 25.8889C19.2889 25.5333 21.4167 19.2222 21.65 18.5C21.9945 17.4444 21.8445 16.4055 20.2723 16.6555C19.8445 16.7 15.5056 17.2611 15.4278 17.2667C15.3549 17.2714 15.2835 17.2905 15.218 17.3228C15.1524 17.3551 15.0938 17.4 15.0456 17.4549C14.9973 17.5098 14.9604 17.5738 14.9368 17.643C14.9133 17.7122 14.9036 17.7854 14.9084 17.8583C14.9131 17.9313 14.9322 18.0026 14.9645 18.0682C14.9968 18.1338 15.0417 18.1923 15.0966 18.2406C15.1516 18.2888 15.2155 18.3258 15.2847 18.3493C15.3539 18.3728 15.4271 18.3825 15.5 18.3778C15.5 18.3778 17.1667 18.1611 17.35 18.1444C17.4439 18.1353 17.5385 18.1535 17.6223 18.1968C17.7061 18.2402 17.7755 18.3069 17.8223 18.3889C17.9229 18.7001 17.9091 19.037 17.7834 19.3389C17.6389 19.8944 15.3556 26.3278 15.2834 26.7C15.2059 27.0115 15.2274 27.3393 15.3449 27.638C15.4624 27.9367 15.67 28.1914 15.9389 28.3667C16.4437 28.7031 17.0446 28.865 17.65 28.8278C18.2387 28.8206 18.8208 28.7038 19.3667 28.4833C20.75 27.9278 22.1945 26.45 22.9556 25.2889C23.0211 25.1709 23.0415 25.0331 23.0129 24.9012C22.9842 24.7693 22.9086 24.6524 22.8 24.5722Z" fill="#F1F1F1"/>
</svg>