<svg width="108" height="45" viewBox="0 0 108 45" fill="none" xmlns="http://www.w3.org/2000/svg">
<rect width="108" height="45" rx="22.5" fill="#EEEEEE"/>
<path d="M25.268 25.896H28.088V27H23.9V18.66H25.268V25.896ZM32.1 27.108C31.476 27.108 30.912 26.968 30.408 26.688C29.904 26.4 29.508 26 29.22 25.488C28.932 24.968 28.788 24.368 28.788 23.688C28.788 23.016 28.936 22.42 29.232 21.9C29.528 21.38 29.932 20.98 30.444 20.7C30.956 20.42 31.528 20.28 32.16 20.28C32.792 20.28 33.364 20.42 33.876 20.7C34.388 20.98 34.792 21.38 35.088 21.9C35.384 22.42 35.532 23.016 35.532 23.688C35.532 24.36 35.38 24.956 35.076 25.476C34.772 25.996 34.356 26.4 33.828 26.688C33.308 26.968 32.732 27.108 32.1 27.108ZM32.1 25.92C32.452 25.92 32.78 25.836 33.084 25.668C33.396 25.5 33.648 25.248 33.84 24.912C34.032 24.576 34.128 24.168 34.128 23.688C34.128 23.208 34.036 22.804 33.852 22.476C33.668 22.14 33.424 21.888 33.12 21.72C32.816 21.552 32.488 21.468 32.136 21.468C31.784 21.468 31.456 21.552 31.152 21.72C30.856 21.888 30.62 22.14 30.444 22.476C30.268 22.804 30.18 23.208 30.18 23.688C30.18 24.4 30.36 24.952 30.72 25.344C31.088 25.728 31.548 25.92 32.1 25.92ZM39.5484 20.28C40.0604 20.28 40.5124 20.384 40.9044 20.592C41.3044 20.792 41.6164 21.044 41.8404 21.348V20.388H43.2204V27.108C43.2204 27.716 43.0924 28.256 42.8364 28.728C42.5804 29.208 42.2084 29.584 41.7204 29.856C41.2404 30.128 40.6644 30.264 39.9924 30.264C39.0964 30.264 38.3524 30.052 37.7604 29.628C37.1684 29.212 36.8324 28.644 36.7524 27.924H38.1084C38.2124 28.268 38.4324 28.544 38.7684 28.752C39.1124 28.968 39.5204 29.076 39.9924 29.076C40.5444 29.076 40.9884 28.908 41.3244 28.572C41.6684 28.236 41.8404 27.748 41.8404 27.108V26.004C41.6084 26.316 41.2924 26.58 40.8924 26.796C40.5004 27.004 40.0524 27.108 39.5484 27.108C38.9724 27.108 38.4444 26.964 37.9644 26.676C37.4924 26.38 37.1164 25.972 36.8364 25.452C36.5644 24.924 36.4284 24.328 36.4284 23.664C36.4284 23 36.5644 22.412 36.8364 21.9C37.1164 21.388 37.4924 20.992 37.9644 20.712C38.4444 20.424 38.9724 20.28 39.5484 20.28ZM41.8404 23.688C41.8404 23.232 41.7444 22.836 41.5524 22.5C41.3684 22.164 41.1244 21.908 40.8204 21.732C40.5164 21.556 40.1884 21.468 39.8364 21.468C39.4844 21.468 39.1564 21.556 38.8524 21.732C38.5484 21.9 38.3004 22.152 38.1084 22.488C37.9244 22.816 37.8324 23.208 37.8324 23.664C37.8324 24.12 37.9244 24.52 38.1084 24.864C38.3004 25.208 38.5484 25.472 38.8524 25.656C39.1644 25.832 39.4924 25.92 39.8364 25.92C40.1884 25.92 40.5164 25.832 40.8204 25.656C41.1244 25.48 41.3684 25.224 41.5524 24.888C41.7444 24.544 41.8404 24.144 41.8404 23.688ZM47.8852 27.108C47.2612 27.108 46.6972 26.968 46.1932 26.688C45.6892 26.4 45.2932 26 45.0052 25.488C44.7172 24.968 44.5732 24.368 44.5732 23.688C44.5732 23.016 44.7212 22.42 45.0172 21.9C45.3132 21.38 45.7172 20.98 46.2292 20.7C46.7412 20.42 47.3132 20.28 47.9452 20.28C48.5772 20.28 49.1492 20.42 49.6612 20.7C50.1732 20.98 50.5772 21.38 50.8732 21.9C51.1692 22.42 51.3172 23.016 51.3172 23.688C51.3172 24.36 51.1652 24.956 50.8612 25.476C50.5572 25.996 50.1412 26.4 49.6132 26.688C49.0932 26.968 48.5172 27.108 47.8852 27.108ZM47.8852 25.92C48.2372 25.92 48.5652 25.836 48.8692 25.668C49.1812 25.5 49.4332 25.248 49.6252 24.912C49.8172 24.576 49.9132 24.168 49.9132 23.688C49.9132 23.208 49.8212 22.804 49.6372 22.476C49.4532 22.14 49.2092 21.888 48.9052 21.72C48.6012 21.552 48.2732 21.468 47.9212 21.468C47.5692 21.468 47.2412 21.552 46.9372 21.72C46.6412 21.888 46.4052 22.14 46.2292 22.476C46.0532 22.804 45.9652 23.208 45.9652 23.688C45.9652 24.4 46.1452 24.952 46.5052 25.344C46.8732 25.728 47.3332 25.92 47.8852 25.92ZM58.6575 20.388V27H57.2895V26.22C57.0735 26.492 56.7895 26.708 56.4375 26.868C56.0935 27.02 55.7255 27.096 55.3335 27.096C54.8135 27.096 54.3455 26.988 53.9295 26.772C53.5215 26.556 53.1975 26.236 52.9575 25.812C52.7255 25.388 52.6095 24.876 52.6095 24.276V20.388H53.9655V24.072C53.9655 24.664 54.1135 25.12 54.4095 25.44C54.7055 25.752 55.1095 25.908 55.6215 25.908C56.1335 25.908 56.5375 25.752 56.8335 25.44C57.1375 25.12 57.2895 24.664 57.2895 24.072V20.388H58.6575ZM62.0585 21.504V25.164C62.0585 25.412 62.1145 25.592 62.2265 25.704C62.3465 25.808 62.5465 25.86 62.8265 25.86H63.6665V27H62.5865C61.9705 27 61.4985 26.856 61.1705 26.568C60.8425 26.28 60.6785 25.812 60.6785 25.164V21.504H59.8985V20.388H60.6785V18.744H62.0585V20.388H63.6665V21.504H62.0585Z" fill="#3B3E54"/>
<path d="M75.5417 17.5417H80.5V16.125H75.5417C74.7625 16.125 74.125 16.7625 74.125 17.5417V27.4583C74.125 28.2375 74.7625 28.875 75.5417 28.875H80.5V27.4583H75.5417V17.5417ZM86.875 22.5L84.0417 19.6667V21.7917H78.375V23.2083H84.0417V25.3333L86.875 22.5Z" fill="#3B3E54"/>
</svg>
