<svg width="39" height="39" viewBox="0 0 39 39" fill="none" xmlns="http://www.w3.org/2000/svg">
<rect width="39" height="39" rx="19.5" fill="#ECECEE"/>
<path d="M27.0246 10C27.5454 10 28.0011 10.173 28.3917 10.519C28.7824 10.865 28.9777 11.2984 28.9777 11.8192C28.9777 12.2879 28.8103 12.8497 28.4754 13.5045C26.0052 18.1845 24.2753 20.9821 23.2857 21.8973C22.564 22.5744 21.753 22.9129 20.8527 22.9129C19.9152 22.9129 19.1097 22.5688 18.4364 21.8806C17.763 21.1923 17.4263 20.3757 17.4263 19.4308C17.4263 18.4784 17.7686 17.6897 18.4531 17.0647L25.5737 10.6027C26.0126 10.2009 26.4963 10 27.0246 10ZM16.8795 21.5402C17.1696 22.1057 17.5658 22.5893 18.0681 22.9911C18.5703 23.3929 19.1302 23.6756 19.7478 23.8393L19.7589 24.6317C19.7887 26.2165 19.3069 27.5074 18.3136 28.5045C17.3203 29.5015 16.0238 30 14.4241 30C13.5089 30 12.6979 29.827 11.9911 29.481C11.2842 29.135 10.7169 28.6607 10.2891 28.058C9.86124 27.4554 9.53943 26.7746 9.32366 26.0156C9.10789 25.2567 9 24.4382 9 23.5603C9.05208 23.5975 9.20461 23.7091 9.45759 23.8951C9.71057 24.0811 9.94122 24.2467 10.1496 24.3917C10.3579 24.5368 10.5774 24.6726 10.808 24.7991C11.0387 24.9256 11.2098 24.9888 11.3214 24.9888C11.6265 24.9888 11.8311 24.8512 11.9353 24.5759C12.1213 24.0848 12.3352 23.6663 12.577 23.3203C12.8188 22.9743 13.0774 22.6916 13.3527 22.4721C13.628 22.2526 13.9554 22.0759 14.3348 21.942C14.7143 21.808 15.0975 21.7132 15.4844 21.6574C15.8713 21.6016 16.3363 21.5625 16.8795 21.5402Z" fill="#CACBCD"/>
</svg>
