<svg width="39" height="39" viewBox="0 0 39 39" fill="none" xmlns="http://www.w3.org/2000/svg">
<rect width="39" height="39" rx="19.5" fill="#ECECEE"/>
<path d="M20.25 26.25C20.25 27.6312 18.85 28.75 17.125 28.75C15.4 28.75 14 27.6312 14 26.25C14 24.8687 15.4 23.75 17.125 23.75C18.85 23.75 20.25 24.8687 20.25 26.25Z" fill="#CACBCD"/>
<path fill-rule="evenodd" clip-rule="evenodd" d="M20.25 13.75V26.25H19V13.75H20.25Z" fill="#CACBCD"/>
<path d="M19 13.525C19.0002 13.2361 19.1004 12.9562 19.2836 12.7329C19.4668 12.5096 19.7217 12.3566 20.005 12.3L23.755 11.55C23.9363 11.5138 24.1233 11.5182 24.3027 11.563C24.4821 11.6077 24.6493 11.6917 24.7923 11.8089C24.9352 11.9261 25.0505 12.0735 25.1296 12.2405C25.2088 12.4076 25.2499 12.5901 25.25 12.775V15L19 16.25V13.525Z" fill="#CACBCD"/>
</svg>
