<svg width="39" height="39" viewBox="0 0 39 39" fill="none" xmlns="http://www.w3.org/2000/svg">
<rect width="39" height="39" rx="19.5" fill="#ECECEE"/>
<path d="M27.104 13.955C27.2063 13.8505 27.3285 13.7675 27.4634 13.7109C27.5982 13.6542 27.743 13.6251 27.8892 13.6251C28.0355 13.6251 28.1803 13.6542 28.3151 13.7109C28.4499 13.7675 28.5721 13.8505 28.6745 13.955C29.1035 14.3885 29.1095 15.089 28.6895 15.53L19.82 26.015C19.7193 26.1255 19.5971 26.2144 19.4608 26.2761C19.3246 26.3379 19.1772 26.3712 19.0277 26.374C18.8781 26.3768 18.7296 26.349 18.5912 26.2925C18.4527 26.2359 18.3273 26.1517 18.2225 26.045L12.8255 20.576C12.6173 20.3637 12.5007 20.0783 12.5007 19.781C12.5007 19.4837 12.6173 19.1982 12.8255 18.986C12.9278 18.8815 13.05 18.7985 13.1849 18.7419C13.3197 18.6852 13.4645 18.6561 13.6107 18.6561C13.757 18.6561 13.9018 18.6852 14.0366 18.7419C14.1714 18.7985 14.2936 18.8815 14.396 18.986L18.974 23.6255L27.074 13.988C27.0833 13.9764 27.0933 13.9653 27.104 13.955Z" fill="#CACBCD"/>
</svg>