<svg width="14" height="14" viewBox="0 0 14 14" fill="none" xmlns="http://www.w3.org/2000/svg">
<path d="M6.98829 4.6083C7.28898 4.6083 7.53274 4.36454 7.53274 4.06385C7.53274 3.76317 7.28898 3.51941 6.98829 3.51941C6.6876 3.51941 6.44385 3.76317 6.44385 4.06385C6.44385 4.36454 6.6876 4.6083 6.98829 4.6083Z" fill="#BEBEBE"/>
<path d="M8.16656 9.72216H7.38878V5.48328H6.22211C6.11897 5.48328 6.02006 5.52425 5.94713 5.59718C5.8742 5.67011 5.83322 5.76903 5.83322 5.87217C5.83322 5.9753 5.8742 6.07422 5.94713 6.14715C6.02006 6.22008 6.11897 6.26105 6.22211 6.26105H6.611V9.72216H5.83322C5.73009 9.72216 5.63117 9.76314 5.55824 9.83607C5.48531 9.909 5.44434 10.0079 5.44434 10.1111C5.44434 10.2142 5.48531 10.3131 5.55824 10.386C5.63117 10.459 5.73009 10.4999 5.83322 10.4999H8.16656C8.2697 10.4999 8.36861 10.459 8.44154 10.386C8.51447 10.3131 8.55545 10.2142 8.55545 10.1111C8.55545 10.0079 8.51447 9.909 8.44154 9.83607C8.36861 9.76314 8.2697 9.72216 8.16656 9.72216Z" fill="#BEBEBE"/>
<path d="M7.00006 13.2222C5.76942 13.2222 4.56641 12.8572 3.54318 12.1735C2.51994 11.4898 1.72242 10.518 1.25147 9.38108C0.780528 8.24411 0.657307 6.99303 0.897393 5.78604C1.13748 4.57905 1.73009 3.47035 2.60028 2.60016C3.47047 1.72997 4.57917 1.13736 5.78616 0.897271C6.99315 0.657185 8.24424 0.780406 9.3812 1.25135C10.5182 1.7223 11.4899 2.51981 12.1736 3.54305C12.8574 4.56629 13.2223 5.7693 13.2223 6.99993C13.2223 8.65017 12.5667 10.2328 11.3998 11.3997C10.2329 12.5666 8.65029 13.2222 7.00006 13.2222ZM7.00006 1.55549C5.92325 1.55549 4.87062 1.8748 3.97529 2.47304C3.07995 3.07129 2.38212 3.92159 1.97005 4.91644C1.55797 5.91128 1.45015 7.00597 1.66023 8.06209C1.8703 9.11821 2.38883 10.0883 3.15025 10.8497C3.91167 11.6112 4.88178 12.1297 5.9379 12.3398C6.99402 12.5498 8.08871 12.442 9.08356 12.0299C10.0784 11.6179 10.9287 10.92 11.5269 10.0247C12.1252 9.12937 12.4445 8.07674 12.4445 6.99993C12.4445 5.55598 11.8709 4.17116 10.8499 3.15013C9.82883 2.1291 8.44401 1.55549 7.00006 1.55549Z" fill="#BEBEBE"/>
</svg>
