<svg width="25" height="25" viewBox="0 0 25 25" fill="none" xmlns="http://www.w3.org/2000/svg">
<path d="M12.9781 1.72964C12.8395 1.62156 12.6687 1.56287 12.493 1.56287C12.3172 1.56287 12.1464 1.62156 12.0078 1.72964L0.78125 10.4835L1.75234 11.7117L3.125 10.6414V20.3125C3.12583 20.7266 3.29071 21.1235 3.58356 21.4164C3.8764 21.7092 4.27335 21.8741 4.6875 21.875H20.3125C20.7266 21.8741 21.1236 21.7092 21.4164 21.4164C21.7093 21.1235 21.8742 20.7266 21.875 20.3125V10.6484L23.2477 11.7187L24.2188 10.4906L12.9781 1.72964ZM14.0625 20.3125H10.9375V14.0625H14.0625V20.3125ZM15.625 20.3125V14.0625C15.6246 13.6482 15.4598 13.251 15.1669 12.9581C14.874 12.6651 14.4768 12.5004 14.0625 12.5H10.9375C10.5232 12.5004 10.126 12.6651 9.8331 12.9581C9.54017 13.251 9.37541 13.6482 9.375 14.0625V20.3125H4.6875V9.42339L12.5 3.33745L20.3125 9.4312V20.3125H15.625Z" fill="#F97850"/>
</svg>
