<svg width="39" height="39" viewBox="0 0 39 39" fill="none" xmlns="http://www.w3.org/2000/svg">
<rect width="39" height="39" rx="19.5" fill="#ECECEE"/>
<path d="M24 26.25C24 27.6312 22.6 28.75 20.875 28.75C19.15 28.75 17.75 27.6312 17.75 26.25C17.75 24.8687 19.15 23.75 20.875 23.75C22.6 23.75 24 24.8687 24 26.25Z" fill="#CACBCD"/>
<path fill-rule="evenodd" clip-rule="evenodd" d="M24 13.75V26.25H22.75V13.75H24Z" fill="#CACBCD"/>
<path d="M22.75 13.525C22.7502 13.2361 22.8504 12.9562 23.0336 12.7329C23.2168 12.5096 23.4717 12.3566 23.755 12.3L27.505 11.55C27.6863 11.5138 27.8733 11.5182 28.0527 11.563C28.2321 11.6077 28.3993 11.6917 28.5423 11.8089C28.6852 11.9261 28.8005 12.0735 28.8796 12.2405C28.9588 12.4076 28.9999 12.5901 29 12.775V15L22.75 16.25V13.525Z" fill="#CACBCD"/>
<path fill-rule="evenodd" clip-rule="evenodd" d="M9 24.375C9 24.2092 9.06585 24.0503 9.18306 23.9331C9.30027 23.8158 9.45924 23.75 9.625 23.75H14C14.1658 23.75 14.3247 23.8158 14.4419 23.9331C14.5592 24.0503 14.625 24.2092 14.625 24.375C14.625 24.5408 14.5592 24.6997 14.4419 24.8169C14.3247 24.9342 14.1658 25 14 25H9.625C9.45924 25 9.30027 24.9342 9.18306 24.8169C9.06585 24.6997 9 24.5408 9 24.375ZM9 19.375C9 19.2092 9.06585 19.0503 9.18306 18.9331C9.30027 18.8158 9.45924 18.75 9.625 18.75H19C19.1658 18.75 19.3247 18.8158 19.4419 18.9331C19.5592 19.0503 19.625 19.2092 19.625 19.375C19.625 19.5408 19.5592 19.6997 19.4419 19.8169C19.3247 19.9342 19.1658 20 19 20H9.625C9.45924 20 9.30027 19.9342 9.18306 19.8169C9.06585 19.6997 9 19.5408 9 19.375ZM9 14.375C9 14.2092 9.06585 14.0503 9.18306 13.9331C9.30027 13.8158 9.45924 13.75 9.625 13.75H19C19.1658 13.75 19.3247 13.8158 19.4419 13.9331C19.5592 14.0503 19.625 14.2092 19.625 14.375C19.625 14.5408 19.5592 14.6997 19.4419 14.8169C19.3247 14.9342 19.1658 15 19 15H9.625C9.45924 15 9.30027 14.9342 9.18306 14.8169C9.06585 14.6997 9 14.5408 9 14.375Z" fill="#CACBCD"/>
</svg>
